# ProBuilder 6.0.5
# https://unity3d.com/unity/features/worldbuilding/probuilder
# 2025-05-23 오후 12:13:01

mtllib ./Laptop.mtl
o Laptop

g Laptop
v -316.4472 21.7086 83.89907
v -317.9329 20.05186 78.05866
v -316.3369 22.1115 83.75672
v -317.8226 20.45477 77.91631
v -314.4848 18.92727 77.50052
v -312.9991 20.58401 83.34093
v -314.2311 19.25262 77.34369
v -312.7454 20.90936 83.1841
v -312.9629 21.08186 83.1905
v -314.4486 19.42513 77.35009
v -310.844 23.34953 82.00822
v -311.0615 23.52203 82.01462
v -312.5472 21.86529 76.1742
v -312.3297 21.69279 76.16781
v -313.5071 21.03472 82.66245
v -315.3583 21.57843 82.97914
v -316.542 20.2585 78.32606
v -314.6907 19.71479 78.00938
v -312.9445 21.11648 82.88041
v -314.2989 19.60619 77.55624
v -311.2112 23.34097 81.80846
v -312.5656 21.83067 76.48429
v -316.4784 21.64358 82.3175
v -317.2498 20.78344 79.28529
v -315.8586 21.33073 81.89561
v -316.4731 20.64545 79.47981

vt 0.8509351 0.3554686
vt 0.9352543 0.3554686
vt 0.8509564 0.3542308
vt 0.9352756 0.3542308
vt 0.9352019 0.3211519
vt 0.8508827 0.3211519
vt 0.9352194 0.3184968
vt 0.8509002 0.3184968
vt 0.8509088 0.320629
vt 0.935228 0.320629
vt 0.8510314 0.2985963
vt 0.85104 0.3007284
vt 0.9353592 0.3007284
vt 0.9353505 0.2985963
vt 0.9143786 0.9085939
vt 0.9151522 0.4050397
vt 0.07488683 0.403749
vt 0.07411334 0.9073032
vt 0.8915847 -0.6320314
vt 0.8915847 -0.6875952
vt 0.8508827 -0.6320314
vt 0.8508827 -0.6875952
vt 0.9266877 0.3429872
vt 0.9266627 0.3245443
vt 0.8594853 0.3245443
vt 0.8712245 0.352084
vt 0.915001 0.352084
vt 0.8756636 0.3451339
vt 0.9105409 0.3451339
vt 0.8595103 0.3429872
vt 0.8546411 0.3197495
vt 0.9315073 0.3197495
vt 0.8547607 0.301608
vt 0.9316269 0.301608

vn -4.693148 1.551156 0.7538427
vn 3.915119 -3.107856 -0.1143398
vn -1.230293 -4.571148 1.609653
vn 1.18856 1.32539 4.67233
vn -1.18856 -1.32539 -4.67233
vn 2.872027 3.687194 -1.776533
vn 1.084613 4.616289 -1.5854
vn 3.915989 -3.10674 -0.1148775
vn -3.915988 3.10674 0.1148773
vn 1.173574 4.640476 -1.445236
vn 1.123593 4.622177 -1.536816
vn 1.073612 4.603878 -1.628395
vn 1.151036 4.596293 -1.596624
vn 1.215518 4.575943 -1.607255
vn 1.138864 4.603439 -1.584719
vn 1.079866 4.571983 -1.706339
vn 1.020867 4.540528 -1.82796

usemtl New_Material
f 9/9/4 6/6/4 8/8/4
f 6/6/4 9/9/4 1/1/4
f 9/9/4 3/3/4 1/1/4
f 2/2/5 4/4/5 10/10/5
f 2/2/5 10/10/5 5/5/5
f 7/7/5 5/5/5 10/10/5
f 4/4/1 2/2/1 1/1/1
f 1/1/1 3/3/1 4/4/1
f 8/8/2 6/6/2 5/5/2
f 5/5/2 7/7/2 8/8/2
f 1/1/3 2/2/3 5/5/3
f 5/5/3 6/6/3 1/1/3
f 11/11/6 14/14/6 13/13/6
f 13/13/6 12/12/6 11/11/6
f 15/15/7 18/18/7 17/17/7
f 17/17/7 16/16/7 15/15/7
f 14/14/5 7/7/5 10/10/5
f 10/10/5 13/13/5 14/14/5
f 11/11/8 8/8/8 7/7/8
f 7/7/8 14/14/8 11/11/8
f 12/12/4 9/9/4 8/8/4
f 8/8/4 11/11/4 12/12/4
f 18/24/12 10/10/11 4/4/10
f 4/4/10 17/23/11 18/24/12
f 15/25/13 9/9/13 10/10/13
f 10/10/13 18/24/13 15/25/13
f 16/30/17 3/3/16 9/9/15
f 9/9/15 15/25/16 16/30/17
f 24/27/14 4/4/14 3/3/14
f 3/3/14 23/26/14 24/27/14
f 23/26/14 3/3/14 16/30/14
f 16/30/14 25/28/14 23/26/14
f 26/29/14 17/23/14 4/4/14
f 4/4/14 24/27/14 26/29/14
f 25/28/14 16/30/14 17/23/14
f 17/23/14 26/29/14 25/28/14
f 20/32/9 10/10/9 9/9/9
f 9/9/9 19/31/9 20/32/9
f 19/31/9 9/9/9 12/12/9
f 12/12/9 21/33/9 19/31/9
f 22/34/9 13/13/9 10/10/9
f 10/10/9 20/32/9 22/34/9
f 21/33/9 12/12/9 13/13/9
f 13/13/9 22/34/9 21/33/9

usemtl Black
f 21/21/9 22/22/9 20/20/9 19/19/9

usemtl Lit
f 25/28/14 26/29/14 24/27/14 23/26/14

