# ProBuilder 6.0.5
# https://unity3d.com/unity/features/worldbuilding/probuilder
# 2025-05-23 오후 12:12:48

mtllib ./PostBox.mtl
o PostBox

g PostBox
v -314.5002 0 92
v -315.5002 0 92
v -314.5002 0.25 92
v -315.5002 0.25 92
v -315.5002 0 91
v -315.5002 0.25 91
v -314.5002 0 91
v -314.5002 0.25 91
v -314.6805 0.25 91.81969
v -315.3199 0.25 91.81969
v -314.6805 0.25 91.18031
v -315.3199 0.25 91.18031
v -314.6805 0.4987094 91.81969
v -315.3199 0.4987094 91.81969
v -314.6805 0.4987094 91.18031
v -315.3199 0.4987094 91.18031
v -314.5065 0.4987094 91.99376
v -315.494 0.4987094 91.99376
v -314.5065 0.4987094 91.00624
v -315.494 0.4987094 91.00624
v -314.5065 1.982325 91.00624
v -314.5065 1.982325 91.99376
v -315.3752 1.629476 91.89251
v -315.3752 1.629476 91.10749
v -315.3752 1.830207 91.89251
v -315.3752 1.830207 91.10749
v -314.93 2.377109 91.00624
v -314.8236 2.354256 91.00624
v -314.8236 2.354256 91.99376
v -314.93 2.377109 91.99376
v -314.6831 2.280693 91.00624
v -314.5654 2.200571 91.00624
v -314.5654 2.200571 91.99376
v -314.6831 2.280693 91.99376
v -315.4351 2.200571 91.00624
v -315.3174 2.280693 91.00624
v -315.3174 2.280693 91.99376
v -315.4351 2.200571 91.99376
v -315.1769 2.354256 91.00624
v -315.0705 2.377109 91.00624
v -315.0705 2.377109 91.99376
v -315.1769 2.354256 91.99376
v -315.494 1.982325 91.00624
v -315.494 1.982325 91.99376
v -315.494 1.629476 91.89251
v -315.494 1.629476 91.10749
v -315.494 1.830207 91.89251
v -315.494 1.830207 91.10749

vt 0.00510937 0.9837688
vt 0.09911835 0.9837688
vt 0.009091586 0.9837688
vt 0.1031006 0.9837688
vt 0.09911835 0.8884198
vt 0.1031006 0.8884198
vt 0.00510937 0.8884198
vt 0.009091586 0.8884198
vt 0.02604121 0.9665768
vt 0.086151 0.9665768
vt 0.02604121 0.9056118
vt 0.086151 0.9056118
vt 0.03000289 0.9665768
vt 0.09011263 0.9665768
vt 0.03000289 0.9056118
vt 0.09011263 0.9056118
vt 0.01363853 0.9831737
vt 0.106477 0.9831737
vt 0.01363853 0.8890148
vt 0.106477 0.8890148
vt 0.03727087 0.8890148
vt 0.03727087 0.9831737
vt 0.7908656 0.7705755
vt 0.2168208 0.7705755
vt 0.7908656 0.9139131
vt 0.2168208 0.9139131
vt 0.08337432 0.8890148
vt 0.07300925 0.8890148
vt 0.07300925 0.9831737
vt 0.08337432 0.9831737
vt 0.05862889 0.8890148
vt 0.04628432 0.8890148
vt 0.04628432 0.9831737
vt 0.05862889 0.9831737
vt 0.1280488 0.8890148
vt 0.1182567 0.8890148
vt 0.1182567 0.9831737
vt 0.1280488 0.9831737
vt 0.09658289 0.8890148
vt 0.09658289 0.9831737
vt 0.1301094 0.8890148
vt 0.1301094 0.9831737
vt 0.8649043 -0.03688207
vt 0.142782 -0.03688207
vt 0.8649043 1.022537
vt 0.142782 1.022537
vt 0.1244889 0.9735197
vt 0.1244889 0.8986689
vt 0.113323 0.9735197
vt 0.113323 0.8986689
vt 0.1276863 0.9735197
vt 0.1165204 0.9735197
vt 0.1276863 0.8986689
vt 0.1165204 0.8986689

vn 0 0 1
vn -1 0 0
vn 0 0 -1
vn 1 0 0
vn 0 -1 0
vn 0 1 0
vn 0.1056012 0.9944085 0
vn 0.3400421 0.9404102 0
vn 0.5140741 0.8577458 0
vn 0.8147894 0.5797571 0
vn -0.8147894 0.5797571 0
vn -0.5140741 0.8577458 0
vn -0.3400421 0.9404102 0
vn -0.1056012 0.9944085 0
vn -0.9654598 0.260552 0
vn 0.9654598 0.260552 0

usemtl PostBox
f 30/30/1 41/40/1 29/29/1
f 41/40/1 42/18/1 29/29/1
f 29/29/1 42/18/1 34/34/1
f 42/18/1 37/37/1 34/34/1
f 34/34/1 37/37/1 33/33/1
f 37/37/1 38/38/1 33/33/1
f 33/33/1 38/38/1 22/22/1
f 44/42/1 18/18/1 17/17/1
f 44/42/1 17/17/1 22/22/1
f 38/38/1 44/42/1 22/22/1
f 21/21/3 43/41/3 35/35/3
f 21/21/3 19/19/3 43/41/3
f 19/19/3 20/20/3 43/41/3
f 21/21/3 35/35/3 32/32/3
f 32/32/3 35/35/3 36/36/3
f 32/32/3 36/36/3 31/31/3
f 31/31/3 36/36/3 39/20/3
f 31/31/3 39/20/3 28/28/3
f 28/28/3 39/20/3 40/39/3
f 28/28/3 40/39/3 27/27/3
f 4/4/1 2/2/1 1/1/1
f 1/1/1 3/3/1 4/4/1
f 6/6/2 5/5/2 2/2/2
f 2/2/2 4/4/2 6/6/2
f 8/8/3 7/7/3 5/5/3
f 5/5/3 6/6/3 8/8/3
f 3/3/4 1/1/4 7/7/4
f 7/7/4 8/8/4 3/3/4
f 2/2/5 5/5/5 7/7/5
f 7/7/5 1/1/5 2/2/5
f 10/10/6 4/4/6 3/3/6
f 3/3/6 9/9/6 10/10/6
f 9/9/6 3/3/6 8/8/6
f 8/8/6 11/11/6 9/9/6
f 12/12/6 6/6/6 4/4/6
f 4/4/6 10/10/6 12/12/6
f 11/11/6 8/8/6 6/6/6
f 6/6/6 12/12/6 11/11/6
f 14/14/1 10/10/1 9/9/1
f 9/9/1 13/13/1 14/14/1
f 13/13/4 9/9/4 11/11/4
f 11/11/4 15/15/4 13/13/4
f 16/16/2 12/12/2 10/10/2
f 10/10/2 14/14/2 16/16/2
f 15/15/3 11/11/3 12/12/3
f 12/12/3 16/16/3 15/15/3
f 18/18/5 14/14/5 13/13/5
f 13/13/5 17/17/5 18/18/5
f 17/17/5 13/13/5 15/15/5
f 15/15/5 19/19/5 17/17/5
f 20/20/5 16/16/5 14/14/5
f 14/14/5 18/18/5 20/20/5
f 19/19/5 15/15/5 16/16/5
f 16/16/5 20/20/5 19/19/5
f 22/22/4 17/17/4 19/19/4
f 19/19/4 21/21/4 22/22/4
f 26/26/2 24/24/2 23/23/2
f 23/23/2 25/25/2 26/26/2
f 29/29/8 28/28/8 27/27/7
f 27/27/7 30/30/7 29/29/8
f 33/33/10 32/32/10 31/31/9
f 31/31/9 34/34/9 33/33/10
f 37/37/12 36/36/12 35/35/11
f 35/35/11 38/38/11 37/37/12
f 41/40/14 40/39/14 39/20/13
f 39/20/13 42/18/13 41/40/14
f 41/40/14 30/30/7 27/27/7
f 27/27/7 40/39/14 41/40/14
f 31/31/9 28/28/8 29/29/8
f 29/29/8 34/34/9 31/31/9
f 39/20/13 36/36/12 37/37/12
f 37/37/12 42/18/13 39/20/13
f 35/35/11 43/41/15 44/42/15
f 44/42/15 38/38/11 35/35/11
f 33/33/10 22/22/16 21/21/16
f 21/21/16 32/32/10 33/33/10
f 46/24/2 20/44/2 18/43/2
f 18/43/2 45/23/2 46/24/2
f 45/23/2 18/43/2 44/45/2
f 44/45/2 47/25/2 45/23/2
f 48/26/2 43/46/2 20/44/2
f 20/44/2 46/24/2 48/26/2
f 47/25/2 44/45/2 43/46/2
f 43/46/2 48/26/2 47/25/2
f 24/50/6 46/48/6 45/47/6
f 45/47/6 23/49/6 24/50/6
f 23/49/3 45/47/3 47/51/3
f 47/51/3 25/52/3 23/49/3
f 26/54/1 48/53/1 46/48/1
f 46/48/1 24/50/1 26/54/1
f 25/52/5 47/51/5 48/53/5
f 48/53/5 26/54/5 25/52/5

